<svg xmlns="http://www.w3.org/2000/svg" viewBox="0 0 395.52 247.2" height="247.2" width="395.52"><g><svg/></g><g><svg viewBox="0 0 395.52 247.2" height="247.2" width="395.52"><g transform="matrix(1,0,0,1,75.54432,74.38531734357005)"><svg viewBox="0 0 244.43135999999998 98.42936531285989" height="98.42936531285989" width="244.43135999999998"><g><svg viewBox="0 0 244.43135999999998 98.42936531285989" height="98.42936531285989" width="244.43135999999998"><g><svg viewBox="0 0 244.43135999999998 98.42936531285989" height="98.42936531285989" width="244.43135999999998"><g><svg viewBox="0 0 244.43135999999998 98.42936531285989" height="98.42936531285989" width="244.43135999999998"><g id="textblocktransform"><svg viewBox="0 0 244.43135999999998 98.42936531285989" height="98.42936531285989" width="244.43135999999998" id="textblock"><g><svg viewBox="0 0 244.43135999999998 98.42936531285989" height="98.42936531285989" width="244.43135999999998"><g transform="matrix(1,0,0,1,0,0)"><svg width="244.43135999999998" viewBox="1.9 -45.15 130.23999999999998 52.449999999999996" height="98.42936531285989" data-palette-color="#9fff00"><path d="M19.65 0L1.9 0 1.9-42.95 19.1-42.95 19.1-34.65 10.65-34.65 10.65-26.3 18.75-26.3 18.75-18.2 10.65-18.2 10.65-8.35 19.65-8.35 19.65 0ZM22.35 7.3L22.35-36.6 31.25-36.6 31.25-34.65Q33.15-37 36.5-37L36.5-37Q40.75-37 42.42-34.15 44.1-31.3 44.1-26.25L44.1-26.25 44.1-12.7Q44.1-8.4 43.6-5.68 43.1-2.95 41.4-1.28 39.7 0.4 36.25 0.4L36.25 0.4Q32.95 0.4 31.25-1.45L31.25-1.45 31.25 7.3 22.35 7.3ZM33.35-6.4Q34.55-6.4 34.9-7.5 35.25-8.6 35.25-10.7L35.25-10.7 35.25-26.25Q35.25-28.15 34.9-29.15 34.55-30.15 33.3-30.15L33.3-30.15Q31.25-30.15 31.25-26.35L31.25-26.35 31.25-10.3Q31.25-8.45 31.67-7.43 32.1-6.4 33.35-6.4L33.35-6.4ZM56.05-39.05L47.3-39.05 47.3-45.15 56.05-45.15 56.05-39.05ZM56.05 0L47.3 0 47.3-36.6 56.05-36.6 56.05 0ZM69.54 0.4Q58.69 0.4 58.69-10.6L58.69-10.6 58.74-13.5 67.49-13.5 67.54-9.2Q67.54-7.9 68.04-7.23 68.54-6.55 69.69-6.55L69.69-6.55Q71.44-6.55 71.44-9.4L71.44-9.4Q71.44-11.5 70.62-12.7 69.79-13.9 67.99-15.25L67.99-15.25 63.34-18.85Q60.94-20.7 59.89-22.68 58.84-24.65 58.84-28.25L58.84-28.25Q58.84-31.05 60.32-33.02 61.79-35 64.24-36 66.69-37 69.69-37L69.69-37Q80.34-37 80.34-26.4L80.34-26.4 80.34-25.7 71.29-25.7 71.29-27.1Q71.29-28.4 70.87-29.33 70.44-30.25 69.44-30.25L69.44-30.25Q68.54-30.25 68.07-29.73 67.59-29.2 67.59-28.3L67.59-28.3Q67.59-26.3 69.14-25.2L69.14-25.2 74.54-21.25Q77.44-19.1 78.99-16.57 80.54-14.05 80.54-10.2L80.54-10.2Q80.54-5.1 77.64-2.35 74.74 0.4 69.54 0.4L69.54 0.4ZM90.79 0.4Q87.34 0.4 86.04-1.05 84.74-2.5 84.74-5.7L84.74-5.7 84.74-28.55 82.29-28.55 82.29-35.2 84.74-35.2 84.74-42.95 93.24-42.95 93.24-35.2 95.74-35.2 95.74-28.55 93.24-28.55 93.24-8Q93.24-7.05 93.39-6.6 93.54-6.15 94.19-6.15L94.19-6.15Q94.69-6.15 95.14-6.2 95.59-6.25 95.74-6.25L95.74-6.25 95.74-0.25Q94.99-0.05 93.57 0.18 92.14 0.4 90.79 0.4L90.79 0.4ZM107.39 0L98.49 0 98.49-43.2 107.39-43.2 107.39 0ZM121.14 0.4Q115.49 0.4 113.04-2.7 110.59-5.8 110.59-11.95L110.59-11.95 110.59-26.65Q110.59-31.7 113.49-34.35 116.39-37 121.59-37L121.59-37Q132.14-37 132.14-26.65L132.14-26.65 132.14-24Q132.14-20 132.04-17.5L132.04-17.5 119.34-17.5 119.34-10.4Q119.34-8.5 119.74-7.43 120.14-6.35 121.44-6.35L121.44-6.35Q122.44-6.35 122.86-6.95 123.29-7.55 123.36-8.33 123.44-9.1 123.44-10.6L123.44-10.6 123.44-14.15 132.14-14.15 132.14-12.05Q132.14-5.65 129.66-2.63 127.19 0.4 121.14 0.4L121.14 0.4ZM119.29-21.85L123.44-21.85 123.44-26.55Q123.44-30.5 121.49-30.5L121.49-30.5Q119.29-30.5 119.29-26.55L119.29-26.55 119.29-21.85Z" opacity="1" transform="matrix(1,0,0,1,0,0)" fill="#000000" class="wordmark-text-0" data-fill-palette-color="primary" id="text-0"/></svg></g></svg></g></svg></g></svg></g></svg></g></svg></g></svg></g><path d="M170.224 68.385L170.224 16.594 384.236 16.594 384.236 230.606 170.224 230.606 170.224 178.815 179.101 178.815 179.101 221.73 375.36 221.73 375.36 25.47 179.101 25.47 179.101 68.385Z" fill="#000000" stroke="transparent" data-fill-palette-color="tertiary"/></svg></g><defs/></svg>